<svg width="178" height="51" viewBox="0 0 178 51" fill="none" xmlns="http://www.w3.org/2000/svg">
<g clip-path="url(#clip0_1_62)">
<path d="M0.477783 38.8078L15.22 23.4281L3.90435 7.09216C3.34653 7.80935 2.9481 8.7656 2.86841 9.88123L-0.0003418 35.939C-0.0800293 37.0547 0.0793457 38.0109 0.477783 38.8078Z" fill="#6C63FF"/>
<path d="M49.9637 4.38281L28.6074 24.225L45.4215 46.9359C46.3777 46.1391 47.0152 44.9437 47.1746 43.5094L50.9996 7.96875C51.159 6.53438 50.6809 5.17969 49.9637 4.38281Z" fill="#6C63FF"/>
<path d="M20.4793 31.3969L15.22 23.4281L0.477783 38.8078C0.796533 39.525 1.35435 40.0031 1.99185 40.1625L42.4731 47.8125C43.5887 48.0515 44.6247 47.6531 45.4215 46.9359L28.6075 24.225L20.4793 31.3969Z" fill="#6C63FF"/>
<path d="M47.255 3.18758L5.65815 5.97665C5.02065 6.05633 4.38315 6.45477 3.90503 7.09227L15.3003 23.4282L20.5597 31.397L28.6878 24.2251L49.9644 4.38289C49.2472 3.58602 48.291 3.10789 47.255 3.18758" fill="#6C63FF"/>
<path d="M28.0503 18.8062L28.5285 14.7422L14.5832 14.6625L12.2722 33.7078L25.8191 36.8953L26.3769 32.8312L16.1769 30.839L16.7347 26.4562L26.9347 27.8906L27.4128 23.8265L17.1332 22.7906L17.691 18.3281L28.0503 18.8062Z" fill="white"/>
</g>
<path d="M72.775 34.25C71.425 34.25 70.1167 34.0583 68.85 33.675C67.6 33.2916 66.6083 32.7833 65.875 32.15L67 29.625C67.7167 30.1916 68.5917 30.6583 69.625 31.025C70.675 31.375 71.725 31.55 72.775 31.55C74.075 31.55 75.0417 31.3416 75.675 30.925C76.325 30.5083 76.65 29.9583 76.65 29.275C76.65 28.775 76.4667 28.3666 76.1 28.05C75.75 27.7166 75.3 27.4583 74.75 27.275C74.2 27.0916 73.45 26.8833 72.5 26.65C71.1667 26.3333 70.0833 26.0166 69.25 25.7C68.4333 25.3833 67.725 24.8916 67.125 24.225C66.5417 23.5416 66.25 22.625 66.25 21.475C66.25 20.5083 66.5083 19.6333 67.025 18.85C67.5583 18.05 68.35 17.4166 69.4 16.95C70.4667 16.4833 71.7667 16.25 73.3 16.25C74.3667 16.25 75.4167 16.3833 76.45 16.65C77.4833 16.9166 78.375 17.3 79.125 17.8L78.1 20.325C77.3333 19.875 76.5333 19.5333 75.7 19.3C74.8667 19.0666 74.0583 18.95 73.275 18.95C71.9917 18.95 71.0333 19.1666 70.4 19.6C69.7833 20.0333 69.475 20.6083 69.475 21.325C69.475 21.825 69.65 22.2333 70 22.55C70.3667 22.8666 70.825 23.1166 71.375 23.3C71.925 23.4833 72.675 23.6916 73.625 23.925C74.925 24.225 75.9917 24.5416 76.825 24.875C77.6583 25.1916 78.3667 25.6833 78.95 26.35C79.55 27.0166 79.85 27.9166 79.85 29.05C79.85 30.0166 79.5833 30.8916 79.05 31.675C78.5333 32.4583 77.7417 33.0833 76.675 33.55C75.6083 34.0166 74.3083 34.25 72.775 34.25Z" fill="#6C63FF"/>
<path d="M95.3227 27.4C95.3227 27.6166 95.306 27.925 95.2727 28.325H84.7977C84.981 29.3083 85.456 30.0916 86.2227 30.675C87.006 31.2416 87.9727 31.525 89.1227 31.525C90.5893 31.525 91.7977 31.0416 92.7477 30.075L94.4227 32C93.8227 32.7166 93.0643 33.2583 92.1477 33.625C91.231 33.9916 90.1977 34.175 89.0477 34.175C87.581 34.175 86.2893 33.8833 85.1727 33.3C84.056 32.7166 83.1893 31.9083 82.5727 30.875C81.9727 29.825 81.6727 28.6416 81.6727 27.325C81.6727 26.025 81.9643 24.8583 82.5477 23.825C83.1477 22.775 83.9727 21.9583 85.0227 21.375C86.0727 20.7916 87.256 20.5 88.5727 20.5C89.8727 20.5 91.031 20.7916 92.0477 21.375C93.081 21.9416 93.881 22.75 94.4477 23.8C95.031 24.8333 95.3227 26.0333 95.3227 27.4ZM88.5727 23C87.5727 23 86.7227 23.3 86.0227 23.9C85.3393 24.4833 84.9227 25.2666 84.7727 26.25H92.3477C92.2143 25.2833 91.806 24.5 91.1227 23.9C90.4393 23.3 89.5893 23 88.5727 23Z" fill="#6C63FF"/>
<path d="M105.899 20.5C107.583 20.5 108.933 20.9916 109.949 21.975C110.966 22.9583 111.474 24.4166 111.474 26.35V34H108.349V26.75C108.349 25.5833 108.074 24.7083 107.524 24.125C106.974 23.525 106.191 23.225 105.174 23.225C104.024 23.225 103.116 23.575 102.449 24.275C101.783 24.9583 101.449 25.95 101.449 27.25V34H98.3244V20.65H101.299V22.375C101.816 21.7583 102.466 21.2916 103.249 20.975C104.033 20.6583 104.916 20.5 105.899 20.5Z" fill="#6C63FF"/>
<path d="M128.636 15.45V34H125.636V32.275C125.119 32.9083 124.477 33.3833 123.711 33.7C122.961 34.0166 122.127 34.175 121.211 34.175C119.927 34.175 118.769 33.8916 117.736 33.325C116.719 32.7583 115.919 31.9583 115.336 30.925C114.752 29.875 114.461 28.675 114.461 27.325C114.461 25.975 114.752 24.7833 115.336 23.75C115.919 22.7166 116.719 21.9166 117.736 21.35C118.769 20.7833 119.927 20.5 121.211 20.5C122.094 20.5 122.902 20.65 123.636 20.95C124.369 21.25 124.994 21.7 125.511 22.3V15.45H128.636ZM121.586 31.5C122.336 31.5 123.011 31.3333 123.611 31C124.211 30.65 124.686 30.1583 125.036 29.525C125.386 28.8916 125.561 28.1583 125.561 27.325C125.561 26.4916 125.386 25.7583 125.036 25.125C124.686 24.4916 124.211 24.0083 123.611 23.675C123.011 23.325 122.336 23.15 121.586 23.15C120.836 23.15 120.161 23.325 119.561 23.675C118.961 24.0083 118.486 24.4916 118.136 25.125C117.786 25.7583 117.611 26.4916 117.611 27.325C117.611 28.1583 117.786 28.8916 118.136 29.525C118.486 30.1583 118.961 30.65 119.561 31C120.161 31.3333 120.836 31.5 121.586 31.5Z" fill="#6C63FF"/>
<path d="M140.124 20.5C141.424 20.5 142.582 20.7833 143.599 21.35C144.632 21.9166 145.44 22.7166 146.024 23.75C146.607 24.7833 146.899 25.975 146.899 27.325C146.899 28.675 146.607 29.875 146.024 30.925C145.44 31.9583 144.632 32.7583 143.599 33.325C142.582 33.8916 141.424 34.175 140.124 34.175C138.324 34.175 136.899 33.575 135.849 32.375V38.85H132.724V20.65H135.699V22.4C136.215 21.7666 136.849 21.2916 137.599 20.975C138.365 20.6583 139.207 20.5 140.124 20.5ZM139.774 31.5C140.924 31.5 141.865 31.1166 142.599 30.35C143.349 29.5833 143.724 28.575 143.724 27.325C143.724 26.075 143.349 25.0666 142.599 24.3C141.865 23.5333 140.924 23.15 139.774 23.15C139.024 23.15 138.349 23.325 137.749 23.675C137.149 24.0083 136.674 24.4916 136.324 25.125C135.974 25.7583 135.799 26.4916 135.799 27.325C135.799 28.1583 135.974 28.8916 136.324 29.525C136.674 30.1583 137.149 30.65 137.749 31C138.349 31.3333 139.024 31.5 139.774 31.5Z" fill="#6C63FF"/>
<path d="M154.792 20.5C156.758 20.5 158.258 20.975 159.292 21.925C160.342 22.8583 160.867 24.275 160.867 26.175V34H157.917V32.375C157.533 32.9583 156.983 33.4083 156.267 33.725C155.567 34.025 154.717 34.175 153.717 34.175C152.717 34.175 151.842 34.0083 151.092 33.675C150.342 33.325 149.758 32.85 149.342 32.25C148.942 31.6333 148.742 30.9416 148.742 30.175C148.742 28.975 149.183 28.0166 150.067 27.3C150.967 26.5666 152.375 26.2 154.292 26.2H157.742V26C157.742 25.0666 157.458 24.35 156.892 23.85C156.342 23.35 155.517 23.1 154.417 23.1C153.667 23.1 152.925 23.2166 152.192 23.45C151.475 23.6833 150.867 24.0083 150.367 24.425L149.142 22.15C149.842 21.6166 150.683 21.2083 151.667 20.925C152.65 20.6416 153.692 20.5 154.792 20.5ZM154.367 31.9C155.15 31.9 155.842 31.725 156.442 31.375C157.058 31.0083 157.492 30.4916 157.742 29.825V28.275H154.517C152.717 28.275 151.817 28.8666 151.817 30.05C151.817 30.6166 152.042 31.0666 152.492 31.4C152.942 31.7333 153.567 31.9 154.367 31.9Z" fill="#6C63FF"/>
<path d="M177.133 20.65L170.883 35.075C170.3 36.525 169.591 37.5416 168.758 38.125C167.925 38.725 166.916 39.025 165.733 39.025C165.066 39.025 164.408 38.9166 163.758 38.7C163.108 38.4833 162.575 38.1833 162.158 37.8L163.408 35.5C163.708 35.7833 164.058 36.0083 164.458 36.175C164.875 36.3416 165.291 36.425 165.708 36.425C166.258 36.425 166.708 36.2833 167.058 36C167.425 35.7166 167.758 35.2416 168.058 34.575L168.283 34.05L162.458 20.65H165.708L169.908 30.525L174.133 20.65H177.133Z" fill="#6C63FF"/>
<defs>
<clipPath id="clip0_1_62">
<rect width="51" height="51" fill="white"/>
</clipPath>
</defs>
</svg>
