<svg width="1076" height="1073" viewBox="0 0 1076 1073" fill="none" xmlns="http://www.w3.org/2000/svg">
<g clip-path="url(#clip0_143_2)">
<path d="M763.478 213.808L778.22 198.428L766.904 182.092C766.347 182.809 765.948 183.766 765.868 184.881L763 210.939C762.92 212.055 763.079 213.011 763.478 213.808Z" fill="#6C63FF"/>
<path d="M812.964 179.383L791.607 199.225L808.421 221.936C809.378 221.139 810.015 219.944 810.175 218.509L814 182.969C814.159 181.534 813.681 180.18 812.964 179.383Z" fill="#6C63FF"/>
<path d="M783.479 206.397L778.22 198.428L763.478 213.808C763.797 214.525 764.354 215.003 764.992 215.162L805.473 222.812C806.589 223.051 807.625 222.653 808.422 221.936L791.607 199.225L783.479 206.397Z" fill="#6C63FF"/>
<path d="M810.255 178.188L768.658 180.977C768.021 181.056 767.383 181.455 766.905 182.092L778.3 198.428L783.56 206.397L791.688 199.225L812.964 179.383C812.247 178.586 811.291 178.108 810.255 178.188Z" fill="#6C63FF"/>
<path d="M791.05 193.806L791.528 189.742L777.583 189.662L775.272 208.708L788.819 211.895L789.377 207.831L779.177 205.839L779.735 201.456L789.935 202.891L790.413 198.827L780.133 197.791L780.691 193.328L791.05 193.806Z" fill="white"/>
</g>
<g opacity="0.5">
<rect x="333.047" y="222.967" width="404" height="447" transform="rotate(48.1653 333.047 222.967)" fill="#F2F2F2"/>
<rect x="785.988" y="227.738" width="434" height="474" transform="rotate(48.1653 785.988 227.738)" fill="#F2F2F2"/>
</g>
<defs>
<clipPath id="clip0_143_2">
<rect width="51" height="51" fill="white" transform="translate(763 175)"/>
</clipPath>
</defs>
</svg>
