<svg width="560" height="423" viewBox="0 0 560 423" fill="none" xmlns="http://www.w3.org/2000/svg">
<circle opacity="0.7" cx="136.5" cy="152.5" r="152.5" fill="#F2F2F2"/>
<g clip-path="url(#clip0_138_9)">
<path d="M99.2195 404.623L128.413 362.639L99.2047 409.19L99.1877 413.967C97.1058 413.949 95.0449 413.881 93.0051 413.763C92.9958 412.679 95.4772 353.003 95.3717 351.923C95.5157 351.882 95.5965 346.279 95.6536 346.034L65.1545 300.155L95.6864 341.692L95.7774 342.919L97.5887 296.555L71.3715 249.076L97.7961 288.408C97.8059 287.778 99.0468 192.581 99.059 191.993C99.0665 192.305 99.636 267.751 99.6402 268.069L124.714 237.701L99.6161 274.595L99.488 316.09L122.756 275.964C93.7177 334.482 100.144 314.004 99.4024 345.265L133.201 289.391L99.3735 353.314L99.2195 404.623Z" fill="#D0CDE1"/>
<path d="M545.839 410.323L558.005 392.827L545.833 412.226L545.826 414.217C544.958 414.209 544.1 414.181 543.25 414.132C543.246 413.68 544.28 388.811 544.236 388.362C544.296 388.345 544.329 386.01 544.353 385.907L531.644 366.789L544.367 384.098L544.405 384.61L545.16 365.288L534.234 345.503L545.246 361.893C545.25 361.631 545.767 321.96 545.772 321.715C545.775 321.845 546.013 353.285 546.015 353.418L556.463 340.763L546.005 356.137L545.951 373.429L555.648 356.707C543.547 381.094 546.225 372.56 545.916 385.587L560 362.303L545.903 388.941L545.839 410.323Z" fill="#D0CDE1"/>
<path d="M311.691 423C447.935 423 558.382 418.669 558.382 413.326C558.382 407.983 447.935 403.652 311.691 403.652C175.447 403.652 65 407.983 65 413.326C65 418.669 175.447 423 311.691 423Z" fill="#D0CDE1"/>
<path d="M431.355 239.258H149.685V407.338H431.355V239.258Z" fill="#3F3D56"/>
<path d="M219.394 239.258C219.106 256.945 211.884 273.81 199.287 286.216C186.689 298.623 169.724 305.577 152.051 305.579C151.259 305.579 150.472 305.565 149.685 305.537V239.258H219.394Z" fill="#6C63FF"/>
<path d="M304.298 407.338H277.509C278.517 404.594 280.342 402.226 282.737 400.553C285.132 398.88 287.983 397.983 290.903 397.983C293.824 397.983 296.675 398.88 299.07 400.553C301.465 402.226 303.29 404.594 304.298 407.338Z" fill="#6C63FF"/>
<path d="M431.354 320.398V377.013C424.092 376.658 417.245 373.52 412.231 368.251C407.218 362.981 404.421 355.983 404.421 348.706C404.421 341.429 407.218 334.43 412.231 329.161C417.245 323.891 424.092 320.753 431.354 320.398Z" fill="#6C63FF"/>
<path d="M379.609 300.334H201.918C197.335 300.334 193.62 304.053 193.62 308.64V308.64C193.62 313.227 197.335 316.946 201.918 316.946H379.609C384.193 316.946 387.908 313.227 387.908 308.64C387.908 304.053 384.193 300.334 379.609 300.334Z" fill="white"/>
<path d="M379.609 333.07H201.918C197.335 333.07 193.62 336.789 193.62 341.376V341.376C193.62 345.964 197.335 349.683 201.918 349.683H379.609C384.193 349.683 387.908 345.964 387.908 341.376C387.908 336.789 384.193 333.07 379.609 333.07Z" fill="white"/>
<path d="M379.609 365.806H328.089C323.505 365.806 319.79 369.525 319.79 374.113C319.79 378.7 323.505 382.419 328.089 382.419H379.609C384.192 382.419 387.908 378.7 387.908 374.113C387.908 369.525 384.192 365.806 379.609 365.806Z" fill="white"/>
<path d="M476.022 176.649C476.022 176.649 483.767 179.664 484.198 189.569C484.628 199.475 482.046 227.039 482.046 227.039C482.046 227.039 491.513 240.821 484.198 244.697C476.883 248.573 476.022 229.192 476.022 229.192L467.416 188.277C467.416 188.277 472.58 176.218 476.022 176.649Z" fill="#A0616A"/>
<path d="M396.847 208.52C396.847 208.52 378.345 220.579 377.484 211.104C376.623 201.629 383.078 164.59 383.078 164.59C383.078 164.59 383.938 148.654 392.975 152.531C402.011 156.407 390.393 169.758 390.393 169.758L391.684 199.906L400.29 199.475L396.847 208.52Z" fill="#A0616A"/>
<path d="M426.538 219.717C426.538 219.717 369.739 198.614 372.751 223.163C375.763 247.712 390.393 278.721 390.393 278.721L395.557 286.904H406.314L399.429 242.544C399.429 242.544 423.956 256.326 431.271 254.172C431.271 254.172 440.738 317.483 444.18 322.22C447.622 326.958 453.647 384.239 453.647 384.239L459.24 391.13H469.998V294.226C469.998 294.226 488.501 233.93 474.301 230.915C460.101 227.9 426.538 219.717 426.538 219.717Z" fill="#2F2E41"/>
<path d="M394.266 281.305C394.266 281.305 391.684 276.568 387.381 281.305C383.078 286.043 372.751 291.642 372.751 291.642C372.751 291.642 350.375 296.81 368.448 301.117C386.52 305.424 388.672 301.117 388.672 301.117C388.672 301.117 391.684 301.978 394.266 302.839C396.847 303.701 413.629 300.686 413.629 298.102C413.629 295.518 407.932 280.074 405.617 282.413C403.302 284.751 394.266 281.305 394.266 281.305Z" fill="#2F2E41"/>
<path d="M460.065 386.867C460.065 386.867 453.72 381.637 452.227 383.131C450.735 384.625 442.897 394.711 442.897 394.711C442.897 394.711 421.998 410.773 441.031 413.388C460.065 416.003 458.945 408.906 458.945 408.906H464.917C465.663 408.906 475.74 404.423 475.366 402.555C474.993 400.688 470.515 385.458 469.022 386.536C467.529 387.614 460.065 386.867 460.065 386.867Z" fill="#2F2E41"/>
<path d="M402.441 160.283C410.521 160.283 417.071 153.727 417.071 145.64C417.071 137.552 410.521 130.996 402.441 130.996C394.361 130.996 387.811 137.552 387.811 145.64C387.811 153.727 394.361 160.283 402.441 160.283Z" fill="#A0616A"/>
<path d="M412.768 143.917C412.768 143.917 423.956 153.392 431.701 153.392C439.447 153.392 420.514 171.05 420.514 171.05L403.732 155.976L412.768 143.917Z" fill="#A0616A"/>
<path d="M417.072 171.05L416.736 167.657C416.736 167.657 425.247 152.531 427.829 151.239C430.411 149.947 432.132 149.947 432.132 149.947C432.132 149.947 440.738 140.902 450.204 145.64C459.671 150.377 482.046 180.525 482.046 180.525C482.046 180.525 466.125 181.817 468.277 194.307C468.277 194.307 484.198 235.222 479.895 235.653C475.592 236.083 462.683 233.069 449.344 239.098C436.005 245.128 429.98 241.252 429.98 241.252L423.096 218.856C423.096 218.856 410.187 211.534 410.617 205.074L391.899 213.472L393.62 197.537L405.023 184.401C405.023 184.401 402.872 182.679 417.072 171.05Z" fill="#575A89"/>
<path d="M388.983 147.223C388.402 147.87 387.673 148.366 386.859 148.671C386.026 148.906 384.976 148.618 384.644 147.817L385.262 147.012L383.408 145.858L384.216 144.909L382.722 143.286L383.901 142.349L381.656 140.743C384.566 135.991 387.712 131.18 392.305 128.03C396.898 124.88 403.316 123.761 408.022 126.74C410.465 128.287 412.192 130.742 413.576 133.283C416.359 138.391 418.812 143.371 419.174 149.179C417.426 147.475 414.874 146.515 413.126 144.811C412.352 143.989 411.475 143.27 410.516 142.673C408.688 141.641 406.5 141.55 404.453 141.084C402.732 140.693 401.615 139.917 400.313 138.806C398.764 137.486 398.701 137.997 397.137 139.483C394.421 142.065 391.703 144.645 388.983 147.223Z" fill="#2F2E41"/>
</g>
<defs>
<clipPath id="clip0_138_9">
<rect width="495" height="298" fill="white" transform="translate(65 125)"/>
</clipPath>
</defs>
</svg>
