<svg width="545" height="423" viewBox="0 0 545 423" fill="none" xmlns="http://www.w3.org/2000/svg">
<ellipse opacity="0.7" cx="144.293" cy="152.5" rx="144.293" ry="152.5" fill="#F2F2F2"/>
<g clip-path="url(#clip0_138_11)">
<path d="M109.018 404.623L136.641 362.639L109.004 409.19L108.988 413.967C107.019 413.949 105.069 413.881 103.139 413.763C103.13 412.679 105.478 353.003 105.378 351.923C105.514 351.882 105.59 346.279 105.645 346.034L76.7869 300.155L105.675 341.692L105.762 342.919L107.475 296.555L82.6692 249.076L107.672 288.408C107.681 287.778 108.855 192.581 108.867 191.993C108.874 192.305 109.413 267.751 109.417 268.069L133.141 237.701L109.394 274.595L109.272 316.09L131.288 275.964C103.813 334.482 109.893 314.004 109.192 345.265L141.171 289.391L109.164 353.314L109.018 404.623Z" fill="#D0CDE1"/>
<path d="M531.601 410.323L543.112 392.827L531.596 412.226L531.589 414.217C530.768 414.209 529.955 414.181 529.151 414.132C529.147 413.68 530.126 388.811 530.084 388.362C530.141 388.345 530.173 386.01 530.195 385.907L518.17 366.789L530.208 384.098L530.244 384.61L530.958 365.288L520.621 345.503L531.04 361.893C531.044 361.631 531.533 321.96 531.538 321.715C531.541 321.845 531.766 353.285 531.767 353.418L541.654 340.763L531.758 356.137L531.707 373.429L540.882 356.707C529.432 381.094 531.966 372.56 531.674 385.587L545 362.303L531.662 388.941L531.601 410.323Z" fill="#D0CDE1"/>
<path d="M310.055 423C438.966 423 543.469 418.669 543.469 413.326C543.469 407.983 438.966 403.652 310.055 403.652C181.144 403.652 76.6406 407.983 76.6406 413.326C76.6406 418.669 181.144 423 310.055 423Z" fill="#D0CDE1"/>
<path d="M423.278 239.258H156.768V407.338H423.278V239.258Z" fill="#3F3D56"/>
<path d="M222.725 239.258C222.452 256.945 215.62 273.81 203.7 286.216C191.78 298.623 175.728 305.577 159.006 305.579C158.257 305.579 157.512 305.565 156.768 305.537V239.258H222.725Z" fill="#6C63FF"/>
<path d="M303.06 407.338H277.712C278.666 404.594 280.393 402.226 282.659 400.553C284.925 398.88 287.622 397.983 290.386 397.983C293.15 397.983 295.847 398.88 298.113 400.553C300.379 402.226 302.106 404.594 303.06 407.338Z" fill="#6C63FF"/>
<path d="M423.278 320.398V377.013C416.407 376.658 409.929 373.52 405.184 368.251C400.44 362.981 397.794 355.983 397.794 348.706C397.794 341.429 400.44 334.43 405.184 329.161C409.929 323.891 416.407 320.753 423.278 320.398Z" fill="#6C63FF"/>
<path d="M374.318 300.334H206.19C201.853 300.334 198.338 304.053 198.338 308.64V308.64C198.338 313.227 201.853 316.946 206.19 316.946H374.318C378.654 316.946 382.17 313.227 382.17 308.64C382.17 304.053 378.654 300.334 374.318 300.334Z" fill="white"/>
<path d="M374.318 333.07H206.19C201.853 333.07 198.338 336.789 198.338 341.376V341.376C198.338 345.964 201.853 349.683 206.19 349.683H374.318C378.654 349.683 382.17 345.964 382.17 341.376C382.17 336.789 378.654 333.07 374.318 333.07Z" fill="white"/>
<path d="M374.318 365.806H325.57C321.233 365.806 317.718 369.525 317.718 374.113C317.718 378.7 321.233 382.419 325.57 382.419H374.318C378.654 382.419 382.17 378.7 382.17 374.113C382.17 369.525 378.654 365.806 374.318 365.806Z" fill="white"/>
<path d="M465.542 176.649C465.542 176.649 472.87 179.664 473.277 189.569C473.684 199.475 471.242 227.039 471.242 227.039C471.242 227.039 480.199 240.821 473.277 244.697C466.356 248.573 465.542 229.192 465.542 229.192L457.399 188.277C457.399 188.277 462.285 176.218 465.542 176.649Z" fill="#A0616A"/>
<path d="M390.628 208.52C390.628 208.52 373.121 220.579 372.307 211.104C371.493 201.629 377.6 164.59 377.6 164.59C377.6 164.59 378.414 148.654 386.964 152.531C395.514 156.407 384.521 169.758 384.521 169.758L385.742 199.906L393.885 199.475L390.628 208.52Z" fill="#A0616A"/>
<path d="M418.721 219.717C418.721 219.717 364.979 198.614 367.828 223.163C370.678 247.712 384.521 278.721 384.521 278.721L389.407 286.904H399.585L393.071 242.544C393.071 242.544 416.278 256.326 423.199 254.172C423.199 254.172 432.156 317.483 435.413 322.22C438.67 326.958 444.37 384.239 444.37 384.239L449.663 391.13H459.842V294.226C459.842 294.226 477.349 233.93 463.913 230.915C450.477 227.9 418.721 219.717 418.721 219.717Z" fill="#2F2E41"/>
<path d="M388.185 281.305C388.185 281.305 385.743 276.568 381.671 281.305C377.6 286.043 367.828 291.642 367.828 291.642C367.828 291.642 346.657 296.81 363.757 301.117C380.857 305.424 382.893 301.117 382.893 301.117C382.893 301.117 385.743 301.978 388.185 302.839C390.628 303.701 406.507 300.686 406.507 298.102C406.507 295.518 401.116 280.074 398.926 282.413C396.735 284.751 388.185 281.305 388.185 281.305Z" fill="#2F2E41"/>
<path d="M450.443 386.867C450.443 386.867 444.44 381.637 443.028 383.131C441.615 384.625 434.2 394.711 434.2 394.711C434.2 394.711 414.425 410.773 432.434 413.388C450.443 416.003 449.384 408.906 449.384 408.906H455.034C455.74 408.906 465.274 404.423 464.921 402.555C464.568 400.688 460.331 385.458 458.918 386.536C457.506 387.614 450.443 386.867 450.443 386.867Z" fill="#2F2E41"/>
<path d="M395.921 160.283C403.566 160.283 409.764 153.727 409.764 145.64C409.764 137.552 403.566 130.996 395.921 130.996C388.276 130.996 382.078 137.552 382.078 145.64C382.078 153.727 388.276 160.283 395.921 160.283Z" fill="#A0616A"/>
<path d="M405.692 143.917C405.692 143.917 416.278 153.392 423.607 153.392C430.935 153.392 413.021 171.05 413.021 171.05L397.143 155.976L405.692 143.917Z" fill="#A0616A"/>
<path d="M409.764 171.05L409.447 167.657C409.447 167.657 417.5 152.531 419.942 151.239C422.385 149.947 424.014 149.947 424.014 149.947C424.014 149.947 432.156 140.902 441.114 145.64C450.071 150.377 471.242 180.525 471.242 180.525C471.242 180.525 456.178 181.817 458.213 194.307C458.213 194.307 473.277 235.222 469.206 235.653C465.135 236.083 452.921 233.069 440.299 239.098C427.678 245.128 421.978 241.252 421.978 241.252L415.464 218.856C415.464 218.856 403.25 211.534 403.657 205.074L385.946 213.472L387.575 197.537L398.364 184.401C398.364 184.401 396.328 182.679 409.764 171.05Z" fill="#575A89"/>
<path d="M383.187 147.223C382.637 147.87 381.948 148.366 381.177 148.671C380.389 148.906 379.396 148.618 379.081 147.817L379.667 147.012L377.912 145.858L378.677 144.909L377.263 143.286L378.379 142.349L376.255 140.743C379.008 135.991 381.985 131.18 386.33 128.03C390.676 124.88 396.749 123.761 401.201 126.74C403.513 128.287 405.147 130.742 406.456 133.283C409.089 138.391 411.41 143.371 411.753 149.179C410.099 147.475 407.684 146.515 406.03 144.811C405.298 143.989 404.468 143.27 403.562 142.673C401.832 141.641 399.762 141.55 397.825 141.084C396.196 140.693 395.14 139.917 393.908 138.806C392.442 137.486 392.382 137.997 390.902 139.483C388.332 142.065 385.761 144.645 383.187 147.223Z" fill="#2F2E41"/>
</g>
<defs>
<clipPath id="clip0_138_11">
<rect width="468.359" height="298" fill="white" transform="translate(76.6406 125)"/>
</clipPath>
</defs>
</svg>
