<svg width="178" height="51" viewBox="0 0 178 51" fill="none" xmlns="http://www.w3.org/2000/svg">
<g clip-path="url(#clip0_152_7)">
<path d="M0.477783 42.8078L15.22 27.4281L3.90435 11.0922C3.34653 11.8094 2.9481 12.7656 2.86841 13.8812L-0.000341799 39.939C-0.0800293 41.0547 0.0793457 42.0109 0.477783 42.8078Z" fill="#6C63FF"/>
<path d="M49.9637 8.38281L28.6074 28.225L45.4215 50.9359C46.3777 50.1391 47.0152 48.9437 47.1746 47.5094L50.9996 11.9688C51.159 10.5344 50.6809 9.17969 49.9637 8.38281Z" fill="#6C63FF"/>
<path d="M20.4793 35.3969L15.22 27.4281L0.477783 42.8078C0.796533 43.525 1.35435 44.0031 1.99185 44.1625L42.4731 51.8125C43.5887 52.0515 44.6247 51.6531 45.4215 50.9359L28.6075 28.225L20.4793 35.3969Z" fill="#6C63FF"/>
<path d="M47.255 7.18758L5.65815 9.97664C5.02065 10.0563 4.38315 10.4548 3.90503 11.0923L15.3003 27.4282L20.5597 35.397L28.6878 28.2251L49.9644 8.38289C49.2472 7.58602 48.291 7.10789 47.255 7.18758Z" fill="#6C63FF"/>
<path d="M28.0503 22.8062L28.5285 18.7422L14.5832 18.6625L12.2722 37.7078L25.8191 40.8953L26.3769 36.8312L16.1769 34.839L16.7347 30.4562L26.9347 31.8906L27.4128 27.8265L17.1332 26.7906L17.691 22.3281L28.0503 22.8062Z" fill="white"/>
</g>
<path d="M72.775 44.25C71.425 44.25 70.1167 44.0583 68.85 43.675C67.6 43.2916 66.6083 42.7833 65.875 42.15L67 39.625C67.7167 40.1916 68.5917 40.6583 69.625 41.025C70.675 41.375 71.725 41.55 72.775 41.55C74.075 41.55 75.0417 41.3416 75.675 40.925C76.325 40.5083 76.65 39.9583 76.65 39.275C76.65 38.775 76.4667 38.3666 76.1 38.05C75.75 37.7166 75.3 37.4583 74.75 37.275C74.2 37.0916 73.45 36.8833 72.5 36.65C71.1667 36.3333 70.0833 36.0166 69.25 35.7C68.4333 35.3833 67.725 34.8916 67.125 34.225C66.5417 33.5416 66.25 32.625 66.25 31.475C66.25 30.5083 66.5083 29.6333 67.025 28.85C67.5583 28.05 68.35 27.4166 69.4 26.95C70.4667 26.4833 71.7667 26.25 73.3 26.25C74.3667 26.25 75.4167 26.3833 76.45 26.65C77.4833 26.9166 78.375 27.3 79.125 27.8L78.1 30.325C77.3333 29.875 76.5333 29.5333 75.7 29.3C74.8667 29.0666 74.0583 28.95 73.275 28.95C71.9917 28.95 71.0333 29.1666 70.4 29.6C69.7833 30.0333 69.475 30.6083 69.475 31.325C69.475 31.825 69.65 32.2333 70 32.55C70.3667 32.8666 70.825 33.1166 71.375 33.3C71.925 33.4833 72.675 33.6916 73.625 33.925C74.925 34.225 75.9917 34.5416 76.825 34.875C77.6583 35.1916 78.3667 35.6833 78.95 36.35C79.55 37.0166 79.85 37.9166 79.85 39.05C79.85 40.0166 79.5833 40.8916 79.05 41.675C78.5333 42.4583 77.7417 43.0833 76.675 43.55C75.6083 44.0166 74.3083 44.25 72.775 44.25Z" fill="#6C63FF"/>
<path d="M95.3227 37.4C95.3227 37.6166 95.306 37.925 95.2727 38.325H84.7977C84.981 39.3083 85.456 40.0916 86.2227 40.675C87.006 41.2416 87.9727 41.525 89.1227 41.525C90.5893 41.525 91.7977 41.0416 92.7477 40.075L94.4227 42C93.8227 42.7166 93.0643 43.2583 92.1477 43.625C91.231 43.9916 90.1977 44.175 89.0477 44.175C87.581 44.175 86.2893 43.8833 85.1727 43.3C84.056 42.7166 83.1893 41.9083 82.5727 40.875C81.9727 39.825 81.6727 38.6416 81.6727 37.325C81.6727 36.025 81.9643 34.8583 82.5477 33.825C83.1477 32.775 83.9727 31.9583 85.0227 31.375C86.0727 30.7916 87.256 30.5 88.5727 30.5C89.8727 30.5 91.031 30.7916 92.0477 31.375C93.081 31.9416 93.881 32.75 94.4477 33.8C95.031 34.8333 95.3227 36.0333 95.3227 37.4ZM88.5727 33C87.5727 33 86.7227 33.3 86.0227 33.9C85.3393 34.4833 84.9227 35.2666 84.7727 36.25H92.3477C92.2143 35.2833 91.806 34.5 91.1227 33.9C90.4393 33.3 89.5893 33 88.5727 33Z" fill="#6C63FF"/>
<path d="M105.899 30.5C107.583 30.5 108.933 30.9916 109.949 31.975C110.966 32.9583 111.474 34.4166 111.474 36.35V44H108.349V36.75C108.349 35.5833 108.074 34.7083 107.524 34.125C106.974 33.525 106.191 33.225 105.174 33.225C104.024 33.225 103.116 33.575 102.449 34.275C101.783 34.9583 101.449 35.95 101.449 37.25V44H98.3244V30.65H101.299V32.375C101.816 31.7583 102.466 31.2916 103.249 30.975C104.033 30.6583 104.916 30.5 105.899 30.5Z" fill="#6C63FF"/>
<path d="M128.636 25.45V44H125.636V42.275C125.119 42.9083 124.477 43.3833 123.711 43.7C122.961 44.0166 122.127 44.175 121.211 44.175C119.927 44.175 118.769 43.8916 117.736 43.325C116.719 42.7583 115.919 41.9583 115.336 40.925C114.752 39.875 114.461 38.675 114.461 37.325C114.461 35.975 114.752 34.7833 115.336 33.75C115.919 32.7166 116.719 31.9166 117.736 31.35C118.769 30.7833 119.927 30.5 121.211 30.5C122.094 30.5 122.902 30.65 123.636 30.95C124.369 31.25 124.994 31.7 125.511 32.3V25.45H128.636ZM121.586 41.5C122.336 41.5 123.011 41.3333 123.611 41C124.211 40.65 124.686 40.1583 125.036 39.525C125.386 38.8916 125.561 38.1583 125.561 37.325C125.561 36.4916 125.386 35.7583 125.036 35.125C124.686 34.4916 124.211 34.0083 123.611 33.675C123.011 33.325 122.336 33.15 121.586 33.15C120.836 33.15 120.161 33.325 119.561 33.675C118.961 34.0083 118.486 34.4916 118.136 35.125C117.786 35.7583 117.611 36.4916 117.611 37.325C117.611 38.1583 117.786 38.8916 118.136 39.525C118.486 40.1583 118.961 40.65 119.561 41C120.161 41.3333 120.836 41.5 121.586 41.5Z" fill="#6C63FF"/>
<path d="M140.124 30.5C141.424 30.5 142.582 30.7833 143.599 31.35C144.632 31.9166 145.44 32.7166 146.024 33.75C146.607 34.7833 146.899 35.975 146.899 37.325C146.899 38.675 146.607 39.875 146.024 40.925C145.44 41.9583 144.632 42.7583 143.599 43.325C142.582 43.8916 141.424 44.175 140.124 44.175C138.324 44.175 136.899 43.575 135.849 42.375V48.85H132.724V30.65H135.699V32.4C136.215 31.7666 136.849 31.2916 137.599 30.975C138.365 30.6583 139.207 30.5 140.124 30.5ZM139.774 41.5C140.924 41.5 141.865 41.1166 142.599 40.35C143.349 39.5833 143.724 38.575 143.724 37.325C143.724 36.075 143.349 35.0666 142.599 34.3C141.865 33.5333 140.924 33.15 139.774 33.15C139.024 33.15 138.349 33.325 137.749 33.675C137.149 34.0083 136.674 34.4916 136.324 35.125C135.974 35.7583 135.799 36.4916 135.799 37.325C135.799 38.1583 135.974 38.8916 136.324 39.525C136.674 40.1583 137.149 40.65 137.749 41C138.349 41.3333 139.024 41.5 139.774 41.5Z" fill="#6C63FF"/>
<path d="M154.792 30.5C156.758 30.5 158.258 30.975 159.292 31.925C160.342 32.8583 160.867 34.275 160.867 36.175V44H157.917V42.375C157.533 42.9583 156.983 43.4083 156.267 43.725C155.567 44.025 154.717 44.175 153.717 44.175C152.717 44.175 151.842 44.0083 151.092 43.675C150.342 43.325 149.758 42.85 149.342 42.25C148.942 41.6333 148.742 40.9416 148.742 40.175C148.742 38.975 149.183 38.0166 150.067 37.3C150.967 36.5666 152.375 36.2 154.292 36.2H157.742V36C157.742 35.0666 157.458 34.35 156.892 33.85C156.342 33.35 155.517 33.1 154.417 33.1C153.667 33.1 152.925 33.2166 152.192 33.45C151.475 33.6833 150.867 34.0083 150.367 34.425L149.142 32.15C149.842 31.6166 150.683 31.2083 151.667 30.925C152.65 30.6416 153.692 30.5 154.792 30.5ZM154.367 41.9C155.15 41.9 155.842 41.725 156.442 41.375C157.058 41.0083 157.492 40.4916 157.742 39.825V38.275H154.517C152.717 38.275 151.817 38.8666 151.817 40.05C151.817 40.6166 152.042 41.0666 152.492 41.4C152.942 41.7333 153.567 41.9 154.367 41.9Z" fill="#6C63FF"/>
<path d="M177.133 30.65L170.883 45.075C170.3 46.525 169.591 47.5416 168.758 48.125C167.925 48.725 166.916 49.025 165.733 49.025C165.066 49.025 164.408 48.9166 163.758 48.7C163.108 48.4833 162.575 48.1833 162.158 47.8L163.408 45.5C163.708 45.7833 164.058 46.0083 164.458 46.175C164.875 46.3416 165.291 46.425 165.708 46.425C166.258 46.425 166.708 46.2833 167.058 46C167.425 45.7166 167.758 45.2416 168.058 44.575L168.283 44.05L162.458 30.65H165.708L169.908 40.525L174.133 30.65H177.133Z" fill="#6C63FF"/>
<defs>
<clipPath id="clip0_152_7">
<rect width="51" height="51" fill="white"/>
</clipPath>
</defs>
</svg>
